<svg xmlns="http://www.w3.org/2000/svg" xmlns:xlink="http://www.w3.org/1999/xlink"><defs><clipPath id="clip0_1098_1697"><path fill="#fff" d="M0 0h27v23H0z"/></clipPath><clipPath id="clip0_1031_1714"><path fill="#fff" d="M0 0h28v28H0z"/></clipPath><radialGradient cx="0" cy="0" gradientTransform="translate(2 21.5) scale(27.933)" gradientUnits="userSpaceOnUse" id="_Radial1" r="1"><stop offset="0" stop-color="#ff8100"/><stop offset=".19" stop-color="#ff7209"/><stop offset=".32" stop-color="#f55e16"/><stop offset=".48" stop-color="#d92938"/><stop offset="1" stop-color="#9100ff"/></radialGradient></defs><symbol id="icon-arrow-down"><path d="M1 1l6 6 6-6" stroke="#CACCCF" stroke-width="2" stroke-linecap="round" stroke-linejoin="round"/></symbol><symbol id="icon-arrow-left"><path d="M7 1L1 7l6 6" stroke="#A0A4A8" stroke-width="2" stroke-linecap="round" stroke-linejoin="round"/></symbol><symbol id="icon-arrow-right"><path d="M1 13l6-6-6-6" stroke="#A0A4A8" stroke-width="2" stroke-linecap="round" stroke-linejoin="round"/></symbol><symbol id="icon-arrow-up"><path d="M13 7L7 1 1 7" stroke="#CACCCF" stroke-width="2" stroke-linecap="round" stroke-linejoin="round"/></symbol><symbol id="icon-basket"><g clip-path="url(#clip0_1098_1697)"><path d="M7.5 21.333a.833.833 0 100-1.666.833.833 0 000 1.666zm9.167 0a.833.833 0 100-1.667.833.833 0 000 1.667zM.833 3.833h3.334L6.4 14.992a1.667 1.667 0 001.667 1.341h8.1a1.667 1.667 0 001.666-1.341L19.167 8H5" stroke="#A0A4A8" stroke-width="2" stroke-linecap="round" stroke-linejoin="round"/><path d="M19 15.5a7.5 7.5 0 100-15 7.5 7.5 0 000 15z" fill="#E93C3C" stroke="#F2F2F2"/></g></symbol><symbol id="icon-exel"><g clip-path="url(#clip0_1031_1714)"><path d="M16.114.712a.583.583 0 00-.495-.117L.453 4.095A.583.583 0 000 4.669v19.833c0 .288.21.533.495.577l15.166 2.333a.583.583 0 00.672-.576V1.169a.583.583 0 00-.219-.457z" fill="#4CAF50"/><path d="M27.417 25.086H15.75a.583.583 0 010-1.167h11.083V4.086H15.75a.583.583 0 110-1.167h11.667c.322 0 .583.261.583.583v21a.583.583 0 01-.583.584z" fill="#4CAF50"/><path d="M11.083 19.253a.583.583 0 01-.494-.274L4.755 9.646a.583.583 0 11.99-.617l5.833 9.333a.583.583 0 01-.495.891z" fill="#FAFAFA"/><path d="M5.25 19.252a.583.583 0 01-.494-.892l5.834-9.333a.583.583 0 11.99.617l-5.834 9.333a.584.584 0 01-.496.275z" fill="#FAFAFA"/><path d="M20.417 25.086a.583.583 0 01-.584-.584v-21a.583.583 0 011.167 0v21a.583.583 0 01-.583.584z" fill="#4CAF50"/><path d="M27.417 21.586H15.75a.583.583 0 110-1.167h11.667a.583.583 0 010 1.167zm0-3.5H15.75a.583.583 0 110-1.167h11.667a.583.583 0 010 1.167zm0-3.5H15.75a.583.583 0 110-1.167h11.667a.583.583 0 010 1.167zm0-3.5H15.75a.583.583 0 110-1.167h11.667a.583.583 0 010 1.167zm0-3.5H15.75a.583.583 0 110-1.167h11.667a.583.583 0 010 1.167z" fill="#4CAF50"/></g></symbol><symbol id="icon-favourite-on-card"><path d="M17.367 2.842a4.584 4.584 0 00-6.484 0L10 3.725l-.883-.883a4.584 4.584 0 10-6.484 6.483l.884.883L10 16.692l6.483-6.484.884-.883a4.584 4.584 0 000-6.483z" stroke="#A0A4A8" stroke-linecap="round" stroke-linejoin="round"/></symbol><symbol id="icon-favourite"><path d="M17.367 6.842a4.583 4.583 0 00-6.484 0L10 7.725l-.883-.883a4.584 4.584 0 10-6.484 6.483l.884.883L10 20.692l6.483-6.484.884-.883a4.582 4.582 0 000-6.483z" stroke="#A0A4A8" stroke-width="2" stroke-linecap="round" stroke-linejoin="round"/><path d="M19 15.5a7.5 7.5 0 100-15 7.5 7.5 0 000 15z" fill="#E93C3C" stroke="#F2F2F2"/></symbol><symbol id="icon-fb"><path d="M21 0H3C1.345 0 0 1.345 0 3v18c0 1.654 1.345 3 3 3h9v-8.25H9V12h3V9a4.5 4.5 0 014.5-4.5h3v3.75H18c-.828 0-1.5-.078-1.5.75v3h3.75l-1.5 3.75H16.5V24H21c1.654 0 3-1.346 3-3V3c0-1.655-1.346-3-3-3z" fill="#4267B2"/></symbol><symbol id="icon-fly"><path d="M21 1L10 12M21 1l-7 20-4-9-9-4 20-7z" stroke="#A0A4A8" stroke-width="2" stroke-linecap="round" stroke-linejoin="round"/></symbol><symbol id="icon-inst"><path fill="none" d="M0 0h24v24H0z"/><path d="M22 7a5 5 0 00-5-5H7a5 5 0 00-5 5v10a5 5 0 005 5h10a5 5 0 005-5V7z" fill="url(#_Radial1)"/><path d="M14.958 5.005c2.091.02 4.016 1.815 4.037 4.037.007 1.972.007 3.944 0 5.916-.02 2.083-1.815 4.016-4.037 4.037-1.972.007-3.944.007-5.916 0-2.092-.02-4.016-1.815-4.037-4.037a833.313 833.313 0 010-5.916c.019-2.093 1.81-4.016 4.037-4.037 1.972-.007 3.944-.007 5.916 0zm-5.889.945c-1.623.005-3.103 1.412-3.119 3.098a968.258 968.258 0 000 5.904c.015 1.605 1.388 3.082 3.098 3.098 1.968.006 3.936.006 5.904 0 1.609-.015 3.082-1.388 3.098-3.098.006-1.968.006-3.936 0-5.904-.015-1.616-1.415-3.082-3.098-3.098-1.961-.006-3.922 0-5.883 0z" fill="#fff" fill-rule="nonzero"/><path d="M12.024 8.5c1.618.015 3.126 1.263 3.422 2.862a3.575 3.575 0 01-1.027 3.178c-.935.89-2.382 1.208-3.622.754-1.386-.507-2.361-1.968-2.296-3.448C8.58 10.078 10.142 8.506 12 8.5h.024zm-.04.947c-1.155.011-2.244.887-2.484 2.025-.243 1.151.419 2.428 1.506 2.887 1.187.502 2.72-.061 3.293-1.233.593-1.211.034-2.856-1.218-3.441a2.592 2.592 0 00-1.097-.238z" fill="#fff" fill-rule="nonzero"/><path d="M16.5 8.227a.727.727 0 00-.727-.727h-.046a.727.727 0 00-.727.727v.023c0 .199.079.39.22.53a.75.75 0 001.28-.53v-.023z" fill="#fff"/></symbol><symbol id="icon-map-pin"><path d="M14 6.667c0 4.666-6 8.666-6 8.666s-6-4-6-8.666a6 6 0 1112 0z" stroke="#E93C3C" stroke-linecap="round" stroke-linejoin="round"/><path d="M8 8.667a2 2 0 100-4 2 2 0 000 4z" stroke="#E93C3C" stroke-linecap="round" stroke-linejoin="round"/></symbol><symbol id="icon-menu"><path d="M3 12h18M3 6h18M3 18h18" stroke="#fff" stroke-width="2" stroke-linecap="square" stroke-linejoin="round"/></symbol><symbol id="icon-search"><path d="M9.167 15.833a6.667 6.667 0 100-13.333 6.667 6.667 0 000 13.333z" stroke="#EB4747" stroke-width="2" stroke-linecap="round" stroke-linejoin="round"/><path d="M17.5 17.5l-3.625-3.625" stroke="#EB4747" stroke-width="2" stroke-linecap="square" stroke-linejoin="round"/></symbol><symbol id="icon-user"><path d="M16.667 17.5v-1.667a3.333 3.333 0 00-3.334-3.333H6.667a3.333 3.333 0 00-3.334 3.333V17.5M10 9.167A3.333 3.333 0 1010 2.5a3.333 3.333 0 000 6.667z" stroke="#A0A4A8" stroke-width="2" stroke-linecap="round" stroke-linejoin="round"/></symbol><symbol id="icon-vk"><path d="M0 11.52c0-5.43 0-8.146 1.687-9.833C3.374 0 6.09 0 11.52 0h.96c5.43 0 8.146 0 9.833 1.687C24 3.374 24 6.09 24 11.52v.96c0 5.43 0 8.146-1.687 9.833C20.626 24 17.911 24 12.48 24h-.96c-5.43 0-8.146 0-9.833-1.687C0 20.626 0 17.911 0 12.48v-.96z" fill="#07F"/><path d="M12.77 17.29c-5.47 0-8.59-3.75-8.72-9.99h2.74c.09 4.58 2.11 6.52 3.71 6.92V7.3h2.58v3.95c1.58-.17 3.24-1.97 3.8-3.95h2.58c-.43 2.44-2.23 4.24-3.51 4.98 1.28.6 3.33 2.17 4.11 5.01h-2.84c-.61-1.9-2.13-3.37-4.14-3.57v3.57h-.31z" fill="#fff"/></symbol></svg>