<svg width="27" height="23" fill="none" xmlns="http://www.w3.org/2000/svg"><g clip-path="url(#clip0_1098_1697)"><path d="M7.5 21.333a.833.833 0 100-1.666.833.833 0 000 1.666zm9.167 0a.833.833 0 100-1.667.833.833 0 000 1.667zM.833 3.833h3.334L6.4 14.992a1.667 1.667 0 001.667 1.341h8.1a1.667 1.667 0 001.666-1.341L19.167 8H5" stroke="#A0A4A8" stroke-width="2" stroke-linecap="round" stroke-linejoin="round"/><path d="M19 15.5a7.5 7.5 0 100-15 7.5 7.5 0 000 15z" fill="#E93C3C" stroke="#F2F2F2"/></g><defs><clipPath id="clip0_1098_1697"><path fill="#fff" d="M0 0h27v23H0z"/></clipPath></defs></svg>